<svg xmlns="http://www.w3.org/2000/svg" width="20" height="20" viewBox="0 0 20 20" fill="none">
  <path fill-rule="evenodd" clip-rule="evenodd" d="M10.0016 13.2218C8.22187 13.2218 6.78 11.7799 6.78 10.0016C6.78 8.22169 8.22187 6.77996 10.0016 6.77996C11.7799 6.77996 13.2218 8.22169 13.2218 10.0016C13.2218 11.7799 11.7799 13.2218 10.0016 13.2218ZM10.0029 0H10.0016C9.01879 0 7.45015 0.144998 5.7407 0.948985C4.9972 1.29817 3.56515 2.08538 2.30217 3.61449C0.049381 6.34179 0 9.41576 0 10.0014C0.00289415 14.1946 2.66262 16.8178 3.0992 17.2345C3.21742 17.3472 6.04473 19.9689 10.0014 20H10.0732C11.6417 20 12.9019 19.5973 13.1245 19.524C14.2932 19.1396 15.1704 18.5989 15.742 18.1849C16.1236 17.923 16.2207 17.3922 15.9574 17.0106C15.7955 16.774 15.5294 16.6474 15.2591 16.6474C15.0943 16.6474 14.9281 16.6952 14.7831 16.7952C14.2551 17.1768 13.3877 17.7104 12.2063 18.0316C12.0416 18.0766 11.1615 18.3103 10.0802 18.3103H10.0014C6.58122 18.2751 4.2001 15.9533 4.2001 15.9533C1.73879 13.5568 1.69089 10.5184 1.69089 10.0016C1.69089 9.63404 1.73734 6.69821 3.93112 4.33147C4.80268 3.39085 5.7307 2.84588 6.30375 2.56156C7.83142 1.79969 9.23524 1.69274 10.0013 1.6913H10.0139C11.7895 1.6913 13.106 2.25738 13.6579 2.52626C14.0043 2.69527 15.4926 3.45427 16.7655 5.17065C17.4737 6.12382 18.3116 8.01068 18.3116 10.0002C18.3116 10.9337 17.5442 11.7011 16.6107 11.7011C15.6785 11.7011 14.9111 10.9337 14.9111 10.0002C14.9111 8.96818 14.7858 8.39917 14.1579 7.37698C13.9734 7.0757 13.7874 6.86587 13.6763 6.74199C12.9581 5.938 12.1683 5.57896 11.8965 5.46623C11.6106 5.34656 10.9208 5.09174 10.0013 5.0903H9.99695C9.14376 5.0903 8.50588 5.30996 8.25524 5.40431C8.02153 5.49447 7.49203 5.71688 6.92739 6.1717C5.96581 6.95039 5.5602 7.87823 5.43907 8.18096C5.30825 8.50771 5.09133 9.15543 5.08989 10.0002C5.08989 10.9111 5.34052 11.6011 5.47712 11.9208C5.6334 12.294 6.03468 13.1078 6.89221 13.8062C8.20168 14.8706 9.64499 14.9115 9.99692 14.9115H10.0013C10.4419 14.91 11.4331 14.851 12.4779 14.2399C13.5058 13.6401 14.0423 12.8262 14.262 12.4432C14.4591 12.6319 14.7899 12.905 15.2659 13.112C15.4673 13.1993 15.9629 13.3894 16.6008 13.3894H16.6106C17.999 13.3852 18.9184 12.4784 19.024 12.3714C19.9645 11.4125 19.9998 10.2423 20.0011 10.0003C20.0266 6.82927 18.2213 4.23418 17.7665 3.68369C17.2456 3.05148 15.7123 1.34911 13.12 0.497216C12.5216 0.300125 11.4149 0.00014446 10.0025 0.00014446" fill="#2FA8F2"/>
</svg>