<svg xmlns="http://www.w3.org/2000/svg" width="20" height="20" viewBox="0 0 20 20" fill="none">
  <path d="M16.6667 0H3.33326C2.4492 0 1.60142 0.35114 0.976279 0.976279C0.35114 1.60142 0 2.4492 0 3.33326V16.6667C0 17.5508 0.35114 18.3986 0.976279 19.0237C1.60142 19.6489 2.4492 20 3.33326 20H16.6667C17.5508 20 18.3986 19.6489 19.0237 19.0237C19.6489 18.3986 20 17.5508 20 16.6667V3.33326C20 2.4492 19.6489 1.60142 19.0237 0.976279C18.3986 0.35114 17.5508 0 16.6667 0V0ZM18.3334 16.6667H18.3333C18.3333 17.1086 18.1578 17.5326 17.8452 17.8451C17.5327 18.1577 17.1087 18.3332 16.6667 18.3332H3.33327C2.8913 18.3332 2.46734 18.1577 2.15484 17.8451C1.84221 17.5326 1.66671 17.1086 1.66671 16.6667V3.33319C1.66671 2.89123 1.84221 2.46727 2.15484 2.15477C2.46734 1.84213 2.8913 1.66663 3.33327 1.66663H16.6667C17.1087 1.66663 17.5327 1.84213 17.8452 2.15477C18.1578 2.46727 18.3333 2.89123 18.3333 3.33319L18.3334 16.6667Z" fill="#3F4354"/>
  <path d="M9.99996 5C8.67394 5 7.4022 5.52678 6.46442 6.46442C5.52678 7.4022 5 8.67394 5 9.99996C5 11.326 5.52678 12.5977 6.46442 13.5355C7.4022 14.4731 8.67394 14.9999 9.99996 14.9999C11.326 14.9999 12.5977 14.4731 13.5355 13.5355C14.4731 12.5977 14.9999 11.326 14.9999 9.99996C14.9999 8.67394 14.4731 7.4022 13.5355 6.46442C12.5977 5.52678 11.326 5 9.99996 5ZM9.99996 13.3332C9.1159 13.3332 8.26812 12.982 7.64298 12.3569C7.01784 11.7317 6.6667 10.884 6.6667 9.99989C6.6667 9.11583 7.01784 8.26805 7.64298 7.64291C8.26812 7.01777 9.1159 6.66663 9.99996 6.66663C10.884 6.66663 11.7318 7.01777 12.3569 7.64291C12.9821 8.26805 13.3332 9.11583 13.3332 9.99989C13.3332 10.884 12.9821 11.7317 12.3569 12.3569C11.7318 12.982 10.884 13.3332 9.99996 13.3332Z" fill="#3F4354"/>
  <path d="M16.667 4.58324C16.667 5.27367 16.1073 5.83323 15.417 5.83323C14.7266 5.83323 14.167 5.27367 14.167 4.58324C14.167 3.89296 14.7266 3.33325 15.417 3.33325C16.1073 3.33325 16.667 3.89296 16.667 4.58324Z" fill="#3F4354"/>
</svg>