<svg xmlns="http://www.w3.org/2000/svg" width="29" height="36" viewBox="0 0 29 36" fill="none">
  <path d="M28.3829 4.34513C27.9699 2.85918 26.8843 1.84605 26.0097 1.3932C25.3125 1.06034 24.6823 0.824302 23.777 0.847452C23.4762 0.866516 23.3049 0.994822 23.1849 1.18894C23.0445 1.4507 23.0653 1.60291 23.1306 1.85468C23.3353 2.60378 23.4942 3.35727 23.1874 4.46693C22.9047 5.48641 22.3975 6.0948 21.8214 6.61907C21.5404 6.8604 21.2268 6.93499 20.9967 6.93181L27.4772 6.93166L28.1316 6.56475L28.3917 5.74393L28.5228 4.96214C28.4775 4.73337 28.4318 4.52291 28.3829 4.34513Z" fill="url(#paint0_linear_14844_28732)" stroke="#539873" stroke-width="0.117649"/>
  <path opacity="0.1774" d="M23.8612 0.84601C23.8335 0.846312 23.8052 0.846615 23.777 0.847372C23.4762 0.866436 23.3047 0.994742 23.1848 1.18886C23.0444 1.45062 23.0653 1.60268 23.1305 1.85445C23.3352 2.60355 23.4942 3.35704 23.1874 4.46655C22.9047 5.48603 22.3975 6.09457 21.8213 6.61884C21.5404 6.86001 21.2266 6.93461 20.9967 6.93143H23.6244C24.2141 6.45119 24.8249 5.67728 25.2702 4.42978C25.8431 2.82445 25.1538 1.64005 24.1702 0.854029C24.0706 0.847977 23.9678 0.845253 23.8612 0.84601Z" fill="#89E2FF"/>
  <path opacity="0.5325" d="M28.3469 4.22363C28.0331 4.70054 27.4958 5.2702 26.575 5.84636C25.4456 6.55295 24.0605 6.83119 22.9389 6.93151H27.477L28.1313 6.56475L28.3915 5.74378L28.5226 4.96199C28.4776 4.73322 28.4318 4.52276 28.3827 4.34498C28.3715 4.30428 28.3593 4.26388 28.3469 4.22363Z" fill="#0D2B5E"/>
  <path d="M0.207402 31.6548C0.620358 33.1409 1.7059 34.1537 2.58043 34.6067C3.27777 34.9396 3.90804 35.1756 4.81332 35.1525C5.11396 35.1337 5.28529 35.0051 5.40537 34.811C5.54581 34.5494 5.52501 34.397 5.4597 34.1454C5.25484 33.3963 5.0958 32.6426 5.40288 31.5333C5.68551 30.5136 6.19277 29.9053 6.76886 29.3808C7.04988 29.1398 7.36355 29.0652 7.59345 29.0684H1.11298L0.458543 29.4352L0.198471 30.2563L0.0672607 31.0381C0.112364 31.2667 0.158345 31.477 0.207402 31.6548Z" fill="url(#paint1_linear_14844_28732)" stroke="#539873" stroke-width="0.117649"/>
  <path opacity="0.1774" d="M4.3075 29.0685C1.94648 30.2265 2.78484 33.7249 5.4093 34.8031C5.5452 34.5465 5.52411 34.3947 5.45953 34.1454C5.25466 33.3963 5.09563 32.6428 5.40257 31.5333C5.68534 30.5138 6.1926 29.9051 6.76869 29.3808C7.0497 29.1398 7.36337 29.0652 7.59328 29.0684L4.3075 29.0685Z" fill="#89E2FF"/>
  <path opacity="0.5325" d="M1.11298 29.0685L0.458543 29.4353L0.198471 30.2564L0.0672607 31.0382C0.0952304 31.1801 0.123787 31.3134 0.152928 31.438C0.476996 30.8362 1.3527 29.8063 3.51881 29.9559C4.5531 30.0275 5.31795 30.212 5.87749 30.4236C6.13273 30.008 6.43937 29.6806 6.76857 29.381C7.04958 29.14 7.36325 29.0654 7.59316 29.0685H1.11298Z" fill="#0D2B5E"/>
  <path d="M28.3664 4.27237C28.5227 4.98062 28.4035 5.56026 27.988 6.12553C27.4814 6.7719 26.7976 6.99492 25.9942 6.93168H7.3945C5.96292 6.93168 4.8103 8.12243 4.8103 9.60157V21.4724C4.8103 22.9515 5.96292 24.1424 7.3945 24.1424H20.8561V21.4886H8.8889C8.0523 21.4886 7.37883 20.7926 7.37883 19.9282V11.1459C7.37883 10.2815 8.0523 9.58554 8.8889 9.58554H17.3934H24.4994H25.2134C26.1176 9.62881 27.0238 9.45224 27.616 8.72507C28.1359 8.08673 28.2518 7.75053 28.4489 6.93168C28.5452 6.50848 28.5866 6.20996 28.5881 5.75302C28.6091 5.06263 28.4623 4.71493 28.3664 4.27237ZM27.294 10.5469C26.5846 10.5469 26.0097 11.1409 26.0097 11.8738V19.9282C26.0097 20.7926 25.336 21.4886 24.4994 21.4886H24.1369V24.1424H25.9941C27.4255 24.1424 28.5781 22.9515 28.5781 21.4724V11.8738C28.5782 11.1409 28.0033 10.5469 27.294 10.5469Z" fill="url(#paint2_linear_14844_28732)"/>
  <path d="M2.59622 11.8575C1.16464 11.8575 0.0118801 13.0484 0.0118801 14.5277V24.1262C0.0118801 24.8589 0.586942 25.4531 1.29629 25.4531C2.00534 25.4531 2.58041 24.8588 2.58041 24.1262V16.0717C2.58041 15.2075 3.25417 14.5113 4.09077 14.5113H4.45408V11.8575H2.59622ZM7.73518 11.8575V14.5113H19.7012C20.538 14.5113 21.2112 15.2073 21.2112 16.0717V24.854C21.2112 25.7183 20.5378 26.4143 19.7012 26.4143H11.1968H4.09077H3.37659C2.47248 26.3711 1.56632 26.5475 0.974125 27.2748C0.454416 27.9132 0.33829 28.249 0.141184 29.0682C0.0449744 29.4912 0.00353289 29.7899 0.00206851 30.2467C-0.019165 30.9371 0.12786 31.2846 0.223777 31.7272C0.0672346 31.0193 0.186728 30.4395 0.602173 29.8743C1.10885 29.2278 1.79257 29.0048 2.59593 29.0682H2.59608H21.1956C22.6272 29.0682 23.7798 27.8774 23.7798 26.3982V14.5277C23.7798 13.0484 22.6272 11.8575 21.1956 11.8575H7.73518Z" fill="url(#paint3_linear_14844_28732)"/>
  <path opacity="0.401" d="M2.20979 14.5114C0.99216 14.5114 0.0119019 15.5242 0.0119019 16.7822V24.1261C0.0119019 24.8589 0.586964 25.4531 1.29631 25.4531C2.00536 25.4531 2.58043 24.8587 2.58043 24.1261V16.0717C2.58043 15.2074 3.25419 14.5113 4.09079 14.5113H2.20979V14.5114Z" fill="#2FA8F2"/>
  <path d="M9.62468 16.6906C10.4182 16.6906 11.0615 17.3555 11.0615 18.1754C11.0615 18.9953 10.4182 19.6601 9.62468 19.6601C8.83113 19.6601 8.18768 18.9953 8.18768 18.1754C8.18768 17.3555 8.83113 16.6906 9.62468 16.6906Z" fill="url(#paint4_linear_14844_28732)" stroke="#93A8B1" stroke-opacity="0.8667" stroke-width="0.117649"/>
  <path d="M14.2104 16.6906C15.0041 16.6906 15.6474 17.3555 15.6474 18.1754C15.6474 18.9953 15.004 19.6601 14.2104 19.6601C13.4169 19.6601 12.7734 18.9953 12.7734 18.1754C12.7734 17.3555 13.4169 16.6906 14.2104 16.6906Z" fill="url(#paint5_linear_14844_28732)" stroke="#93A8B1" stroke-opacity="0.8667" stroke-width="0.117649"/>
  <path d="M18.7963 16.6906C19.59 16.6906 20.2333 17.3555 20.2333 18.1754C20.2333 18.9953 19.59 19.6601 18.7963 19.6601C18.0028 19.6601 17.3593 18.9953 17.3593 18.1754C17.3595 17.3555 18.0028 16.6906 18.7963 16.6906Z" fill="url(#paint6_linear_14844_28732)" stroke="#93A8B1" stroke-opacity="0.8667" stroke-width="0.117649"/>
  <path opacity="0.6876" d="M7.79325 9.58545C6.14069 9.58545 4.8103 10.9599 4.8103 12.6675V18.4063C4.8103 20.1139 6.14069 21.4885 7.79325 21.4885H8.8889C8.0523 21.4885 7.37883 20.7925 7.37883 19.9281V11.1458C7.37883 10.2814 8.0523 9.58545 8.8889 9.58545H7.79325Z" fill="#641991"/>
  <path opacity="0.428" d="M20.7968 26.4146C22.4495 26.4146 23.7799 25.04 23.7799 23.3324V17.5934C23.7799 15.886 22.4495 14.5114 20.7968 14.5114H19.7012C20.5379 14.5114 21.2111 15.2074 21.2111 16.0718V24.854C21.2111 25.7184 20.5378 26.4146 19.7012 26.4146H20.7968Z" fill="#B51238"/>
  <defs>
    <linearGradient id="paint0_linear_14844_28732" x1="23.4434" y1="3.99204" x2="28.4662" y2="4.55259" gradientUnits="userSpaceOnUse">
      <stop stop-color="#0964E7"/>
      <stop offset="1" stop-color="#48D4FA"/>
    </linearGradient>
    <linearGradient id="paint1_linear_14844_28732" x1="0.0517157" y1="32.1861" x2="5.61969" y2="32.0506" gradientUnits="userSpaceOnUse">
      <stop stop-color="#0964E7"/>
      <stop offset="1" stop-color="#48D4FA"/>
    </linearGradient>
    <linearGradient id="paint2_linear_14844_28732" x1="4.81031" y1="14.2074" x2="28.5901" y2="14.2074" gradientUnits="userSpaceOnUse">
      <stop stop-color="#7E1FF7"/>
      <stop offset="1" stop-color="#E63BF7"/>
    </linearGradient>
    <linearGradient id="paint3_linear_14844_28732" x1="0.000136773" y1="21.7924" x2="23.78" y2="21.7924" gradientUnits="userSpaceOnUse">
      <stop stop-color="#FF981B"/>
      <stop offset="1" stop-color="#FC236C"/>
    </linearGradient>
    <linearGradient id="paint4_linear_14844_28732" x1="8.17047" y1="18.1753" x2="11.0786" y2="18.1753" gradientUnits="userSpaceOnUse">
      <stop stop-color="#0964E7"/>
      <stop offset="1" stop-color="#48D4FA"/>
    </linearGradient>
    <linearGradient id="paint5_linear_14844_28732" x1="12.7562" y1="18.1753" x2="15.6644" y2="18.1753" gradientUnits="userSpaceOnUse">
      <stop stop-color="#0964E7"/>
      <stop offset="1" stop-color="#48D4FA"/>
    </linearGradient>
    <linearGradient id="paint6_linear_14844_28732" x1="17.3421" y1="18.1753" x2="20.2502" y2="18.1753" gradientUnits="userSpaceOnUse">
      <stop stop-color="#0964E7"/>
      <stop offset="1" stop-color="#48D4FA"/>
    </linearGradient>
  </defs>
</svg>