<svg width="16" height="16" viewBox="0 0 16 16" fill="none" xmlns="http://www.w3.org/2000/svg">
<path d="M15.9988 8.79295C15.7929 10.8157 14.8262 12.6847 13.2944 14.0217C11.7627 15.3589 9.78009 16.0643 7.74795 15.9954C5.71586 15.9264 3.78568 15.0882 2.34823 13.6503C0.910615 12.2123 0.0729844 10.2819 0.00453265 8.24984C-0.0637816 6.21773 0.642211 4.23563 1.97991 2.70424C3.31762 1.17302 5.18701 0.206932 7.20987 0.00161789C7.33376 -0.0121195 7.45028 0.0628126 7.48912 0.181202C7.52797 0.299592 7.47838 0.428973 7.37048 0.49129C6.33191 1.11046 5.50713 2.03188 5.00645 3.13234C4.50577 4.23295 4.35301 5.46007 4.56859 6.64973C4.78428 7.83938 5.35801 8.93488 6.21316 9.78971C7.06828 10.6445 8.16408 11.2179 9.35388 11.4331C10.5437 11.6484 11.7709 11.4952 12.8714 10.9942C13.9718 10.4932 14.893 9.66806 15.5119 8.62937C15.5755 8.52472 15.7029 8.47788 15.8192 8.51622C15.9355 8.55456 16.0099 8.66796 15.9989 8.78997L15.9988 8.79295Z" fill="#C5D0E6"/>
</svg>
