<svg width="14" height="15" viewBox="0 0 14 15" fill="none" xmlns="http://www.w3.org/2000/svg">
<g clip-path="url(#clip0_16205_30310)">
<path d="M1.033 1.10064H0.595496V1.52894V11.2149V11.6432H1.033H5.16128C5.13898 11.7165 5.11941 11.7892 5.10197 11.8611H0.524006C0.50404 11.8611 0.487314 11.8544 0.471251 11.8373C0.453405 11.8184 0.4375 11.7863 0.4375 11.7442V1.04612C0.4375 1.00646 0.451662 0.979263 0.468316 0.961937C0.483668 0.945965 0.506512 0.932685 0.539342 0.929321H10.0749C10.0949 0.929321 10.1116 0.935979 10.1277 0.953023C10.1455 0.971961 10.1614 1.00409 10.1614 1.04612V4.24504L10.0034 4.46888V1.52894V1.10064H9.56594H1.033Z" fill="#97989D" stroke="#97989D"/>
<path d="M7.95894 4.0011H2.70566C2.39469 4.0011 2.13281 4.22604 2.13281 4.52612C2.13281 4.81112 2.37825 5.05114 2.70566 5.05114L7.95894 5.05103C8.26991 5.05103 8.53178 4.82609 8.53178 4.52601C8.51546 4.22606 8.26991 4.0011 7.95894 4.0011Z" fill="#97989D"/>
<path d="M7.31159 6.1012H2.64201C2.36559 6.1012 2.13281 6.32614 2.13281 6.62622C2.13281 6.91123 2.35098 7.15123 2.64201 7.15123L7.31159 7.15113C7.58801 7.15113 7.82078 6.92618 7.82078 6.62612C7.80628 6.32616 7.58801 6.1012 7.31159 6.1012Z" fill="#97989D"/>
<path d="M6.39879 8.7262C6.39879 8.44119 6.17031 8.20117 5.8655 8.20117H2.6661C2.3766 8.20117 2.13281 8.42612 2.13281 8.7262C2.13281 9.0112 2.3613 9.25117 2.6661 9.25117H5.88073C6.15492 9.23618 6.39879 9.0112 6.39879 8.7262Z" fill="#97989D"/>
<path d="M6.51859 12.2581L6.04512 13.8013C5.98528 14.1128 6.2335 14.3071 6.51794 14.1513L7.87821 13.3348C7.98305 13.2726 8.08779 13.1947 8.17759 13.1013L6.65318 11.8843C6.59335 11.9933 6.54845 12.118 6.51859 12.2581Z" fill="#97989D"/>
<path d="M13.8652 4.70121L12.8611 3.88038C12.6516 3.70908 12.3371 3.75579 12.1875 3.98944L7.27734 10.9191L8.88821 12.0514L13.8652 5.40123C14.0148 5.18322 14.0748 4.85695 13.8652 4.70121Z" fill="#97989D"/>
</g>
<defs>
<clipPath id="clip0_16205_30310">
<rect width="14" height="13.7053" fill="white" transform="translate(0 0.500977)"/>
</clipPath>
</defs>
</svg>
