<svg width="16" height="16" viewBox="0 0 16 16" fill="none" xmlns="http://www.w3.org/2000/svg">
<path d="M7.99951 2.4473C7.67014 2.4473 7.40332 2.18622 7.40332 1.86424V0.583058C7.40332 0.260942 7.67028 0 7.99951 0C8.32875 0 8.59558 0.261074 8.59558 0.583058V1.86424C8.59558 2.18636 8.32875 2.4473 7.99951 2.4473Z" fill="#2C353D"/>
<path d="M7.99951 15.9999C7.67014 15.9999 7.40332 15.7388 7.40332 15.417V14.1357C7.40332 13.8136 7.67028 13.5527 7.99951 13.5527C8.32875 13.5527 8.59558 13.8136 8.59558 14.1357V15.417C8.59558 15.7389 8.32875 15.9999 7.99951 15.9999Z" fill="#2C353D"/>
<path d="M13.4622 5.566C13.2542 5.566 13.0521 5.45936 12.9424 5.26936C12.7805 4.98917 12.8816 4.63309 13.1685 4.47474L14.3093 3.84492C14.5959 3.68658 14.9598 3.78585 15.1216 4.06604C15.2835 4.34634 15.1822 4.70231 14.8954 4.86065L13.7549 5.49035C13.662 5.54172 13.5614 5.56601 13.4622 5.56601L13.4622 5.566Z" fill="#2C353D"/>
<path d="M1.39651 12.2299C1.18867 12.2299 0.986255 12.1233 0.876735 11.9333C0.715173 11.6528 0.816326 11.2971 1.10295 11.1387L2.24378 10.509C2.53099 10.3506 2.89438 10.4497 3.05606 10.7301C3.21774 11.0107 3.1167 11.3664 2.82996 11.5248L1.68913 12.1545C1.59645 12.2059 1.49601 12.2299 1.3965 12.2299L1.39651 12.2299Z" fill="#2C353D"/>
<path d="M2.53633 5.56614C2.43706 5.56614 2.33626 5.54207 2.24394 5.49083L1.1031 4.86101C0.816483 4.70266 0.714977 4.34703 0.876892 4.06639C1.03881 3.7862 1.40221 3.68682 1.68941 3.84528L2.83024 4.4751C3.11686 4.6331 3.21813 4.98908 3.05634 5.26948C2.94647 5.45927 2.74451 5.56612 2.53632 5.56612L2.53633 5.56614Z" fill="#2C353D"/>
<path d="M14.6019 12.23C14.5026 12.23 14.4017 12.2059 14.3094 12.1547L13.1683 11.5246C12.8818 11.3666 12.7804 11.0109 12.9424 10.7302C13.1041 10.4499 13.4676 10.3505 13.7547 10.5091L14.8958 11.1386C15.1823 11.2971 15.2839 11.6527 15.1216 11.9332C15.0122 12.1235 14.8104 12.23 14.6019 12.23L14.6019 12.23Z" fill="#2C353D"/>
<path d="M8.00013 4C5.79087 4 4 5.79092 4 7.99987C4 10.2091 5.79092 12 8.00013 12C10.2093 12 12 10.2091 12 7.99987C12 5.79082 10.2093 4 8.00013 4ZM10.8046 8.03406C10.7918 8.03569 10.779 8.03651 10.7665 8.03651C10.6205 8.03651 10.4934 7.92803 10.4742 7.77907C10.315 6.54328 9.29886 5.5688 8.05755 5.46186C7.89545 5.448 7.77504 5.30516 7.78922 5.14266C7.80298 4.98045 7.94561 4.86054 8.10834 4.87401C9.62399 5.00441 10.8653 6.194 11.0595 7.70328C11.0802 7.86549 10.9661 8.01343 10.8045 8.03412L10.8046 8.03406Z" fill="#2C353D"/>
</svg>
