<svg width="20" height="21" viewBox="0 0 20 21" fill="none" xmlns="http://www.w3.org/2000/svg">
<path d="M2.68004 18.0117L0.826818 18.4202L1.54456 16.3564L1.54457 16.3564L1.54587 16.3526C1.84095 15.4893 1.84367 14.5556 1.51584 13.6802C1.09239 12.5088 0.890927 11.1996 0.980465 9.84293C1.29335 5.10615 5.23098 1.34167 9.91163 1.25146C14.999 1.16168 19.1591 5.2382 19.2486 10.3432L19.2486 10.3433C19.338 15.4183 15.2215 19.6797 10.2069 19.75C8.48352 19.7491 6.87855 19.2981 5.49843 18.4907C4.66284 17.981 3.64649 17.7983 2.68033 18.0116C2.68024 18.0117 2.68014 18.0117 2.68004 18.0117Z" stroke="#F7F7F7" stroke-width="1.5"/>
<path d="M6 8.5H15" stroke="#F7F7F7" stroke-width="1.5" stroke-linecap="round" stroke-linejoin="round"/>
<path d="M6 12.5H11" stroke="#F7F7F7" stroke-width="1.5" stroke-linecap="round" stroke-linejoin="round"/>
</svg>

