<svg width="20" height="21" viewBox="0 0 20 21" fill="none" xmlns="http://www.w3.org/2000/svg">
<path d="M1.35235 10.1391L0.641658 10.3787L0.641884 10.3794L1.35235 10.1391ZM4.85625 2.65762L5.07572 3.37479L5.07607 3.37468L4.85625 2.65762ZM10.0012 18.5999L9.65684 19.2661C9.87362 19.3782 10.1314 19.3778 10.3478 19.265L10.0012 18.5999ZM18.6492 10.1391L17.9384 9.89968L17.9372 9.90339L18.6492 10.1391ZM15.1368 2.65762L15.3562 1.94045L15.3555 1.94021L15.1368 2.65762ZM10.0012 3.47849L9.56518 4.0887C9.82894 4.27718 10.1839 4.27487 10.4452 4.08296L10.0012 3.47849ZM13.118 5.97521L13.8445 6.16117V6.16117L13.118 5.97521ZM13.2396 5.90312L13.4256 5.17654L13.4256 5.17654L13.2396 5.90312ZM13.19 6.09688L13.376 5.3703L13.376 5.3703L13.19 6.09688ZM15.6868 8.58163L16.4329 8.50512L16.4329 8.50511L15.6868 8.58163ZM15.8857 8.56123L15.1397 8.63775L15.1397 8.63775L15.8857 8.56123ZM2.06304 9.89949C1.14881 7.18807 2.23841 4.24307 5.07572 3.37479L4.63678 1.94045C0.809283 3.11175 -0.477478 7.0596 0.641658 10.3787L2.06304 9.89949ZM10.0012 18.5999C10.3457 17.9337 10.3458 17.9337 10.3459 17.9338C10.3459 17.9338 10.3459 17.9338 10.3459 17.9338C10.3459 17.9338 10.3458 17.9337 10.3455 17.9336C10.3451 17.9334 10.3442 17.9329 10.3429 17.9322C10.3403 17.9309 10.3361 17.9287 10.3303 17.9256C10.3186 17.9195 10.3004 17.9099 10.2763 17.8969C10.2279 17.871 10.1553 17.8316 10.0616 17.7794C9.87405 17.675 9.60204 17.5193 9.26956 17.3171C8.60371 16.9121 7.69997 16.3234 6.74827 15.589C4.81542 14.0974 2.80607 12.0964 2.06281 9.89882L0.641884 10.3794C1.53403 13.0171 3.84913 15.2464 5.83188 16.7765C6.83798 17.5529 7.78982 18.1727 8.4901 18.5986C8.8407 18.8119 9.12939 18.9772 9.33178 19.0899C9.43301 19.1463 9.51272 19.1895 9.56789 19.2191C9.59548 19.2339 9.61694 19.2452 9.63189 19.2531C9.63936 19.257 9.64521 19.2601 9.64939 19.2623C9.65147 19.2634 9.65314 19.2642 9.65438 19.2649C9.65501 19.2652 9.65552 19.2655 9.65593 19.2657C9.65614 19.2658 9.65636 19.2659 9.65647 19.266C9.65666 19.2661 9.65684 19.2661 10.0012 18.5999ZM17.9372 9.90339C17.2203 12.0687 15.215 14.0679 13.2733 15.5683C12.3181 16.3064 11.4092 16.9005 10.739 17.31C10.4043 17.5145 10.1303 17.6722 9.9413 17.7781C9.84682 17.8311 9.77365 17.871 9.72485 17.8973C9.70046 17.9105 9.68215 17.9203 9.67033 17.9265C9.66442 17.9297 9.66013 17.9319 9.65751 17.9333C9.6562 17.934 9.6553 17.9345 9.65483 17.9347C9.6546 17.9348 9.65447 17.9349 9.65444 17.9349C9.65443 17.9349 9.6545 17.9349 9.65449 17.9349C9.65458 17.9348 9.6547 17.9348 10.0012 18.5999C10.3478 19.265 10.348 19.2649 10.3482 19.2648C10.3483 19.2648 10.3485 19.2647 10.3487 19.2646C10.3491 19.2644 10.3496 19.2641 10.3502 19.2638C10.3515 19.2631 10.3531 19.2622 10.3552 19.2611C10.3594 19.2589 10.3653 19.2558 10.3728 19.2519C10.3878 19.2439 10.4094 19.2324 10.4371 19.2174C10.4926 19.1875 10.5728 19.1437 10.6746 19.0867C10.8781 18.9726 11.1685 18.8054 11.521 18.59C12.225 18.1599 13.1814 17.5349 14.1904 16.7553C16.1771 15.2201 18.4957 12.989 19.3612 10.3748L17.9372 9.90339ZM14.9173 3.37479C17.7561 4.24353 18.8513 7.18982 17.9384 9.89969L19.36 10.3785C20.4786 7.05784 19.1822 3.11129 15.3562 1.94045L14.9173 3.37479ZM10.4452 4.08296C11.6265 3.2153 13.3854 2.90784 14.9181 3.37503L15.3555 1.94021C13.3861 1.33989 11.1332 1.7165 9.55727 2.87402L10.4452 4.08296ZM5.07607 3.37468C6.60795 2.90508 8.29993 3.18452 9.56518 4.0887L10.4373 2.86829C8.78801 1.68967 6.61035 1.33545 4.63643 1.94055L5.07607 3.37468ZM13.8445 6.16117C13.7555 6.50894 13.4015 6.71871 13.0537 6.6297L13.4256 5.17654C12.9708 5.06014 12.5078 5.33446 12.3914 5.78924L13.8445 6.16117ZM13.376 5.3703C13.7238 5.45931 13.9336 5.81339 13.8445 6.16117L12.3914 5.78924C12.275 6.24403 12.5493 6.70706 13.0041 6.82346L13.376 5.3703ZM16.4329 8.50511C16.2755 6.97061 14.9957 5.78485 13.376 5.3703L13.0041 6.82346C14.1983 7.12912 14.8648 7.9184 14.9407 8.65815L16.4329 8.50511ZM15.72 7.92482C16.0771 7.88819 16.3963 8.148 16.4329 8.50512L14.9407 8.65814C14.9886 9.12514 15.406 9.46489 15.873 9.41699L15.72 7.92482ZM15.1397 8.63775C15.103 8.28063 15.3628 7.96145 15.72 7.92482L15.873 9.41699C16.34 9.3691 16.6797 8.9517 16.6318 8.4847L15.1397 8.63775ZM13.0537 6.6297C14.3055 6.95008 15.053 7.79269 15.1397 8.63775L16.6318 8.48471C16.4635 6.84337 15.101 5.60534 13.4256 5.17654L13.0537 6.6297Z" fill="#F7F7F7"/>
</svg>

